<?xml version="1.0" encoding="UTF-8"?>
<!DOCTYPE svg PUBLIC "-//W3C//DTD SVG 1.1//EN" "http://www.w3.org/Graphics/SVG/1.1/DTD/svg11.dtd">
<!-- Creator: CorelDRAW -->
<svg xmlns="http://www.w3.org/2000/svg" xml:space="preserve" width="0.841189in" height="1.14997in" version="1.1" style="shape-rendering:geometricPrecision; text-rendering:geometricPrecision; image-rendering:optimizeQuality; fill-rule:evenodd; clip-rule:evenodd"
viewBox="0 0 79.69 108.94"
 xmlns:xlink="http://www.w3.org/1999/xlink"
 xmlns:xodm="http://www.corel.com/coreldraw/odm/2003">
 <defs>
  <style type="text/css">
   <![CDATA[
    .fil0 {fill:#FF3003}
   ]]>
  </style>
 </defs>
 <g id="Layer_x0020_1">
  <metadata id="CorelCorpID_0Corel-Layer"/>
  <path class="fil0" d="M4.65 0l21.43 0c2.56,0 4.65,2.09 4.65,4.65l0 6.46 5.87 0 0 -6.46c0,-2.56 2.09,-4.65 4.65,-4.65l33.78 0c2.56,0 4.65,2.09 4.65,4.65l0 18.53c0,2.56 -2.09,4.65 -4.65,4.65l-33.78 0c-2.56,0 -4.65,-2.09 -4.65,-4.65l0 -6.46 -5.87 0 0 34.95 5.87 0 0 -6.46c0,-2.56 2.09,-4.65 4.65,-4.65l33.78 0c2.56,0 4.65,2.09 4.65,4.65l0 18.53c0,2.56 -2.09,4.65 -4.65,4.65l-33.78 0c-2.56,0 -4.65,-2.09 -4.65,-4.65l0 -6.46 -5.87 0 0 34.95 5.87 0 0 -6.46c0,-2.56 2.09,-4.65 4.65,-4.65l33.78 0c2.56,0 4.65,2.09 4.65,4.65l0 18.53c0,2.56 -2.09,4.65 -4.65,4.65l-33.78 0c-2.56,0 -4.65,-2.09 -4.65,-4.65l0 -6.46 -5.87 0 0 6.46c0,2.56 -2.09,4.65 -4.65,4.65l-21.43 0c-2.56,0 -4.65,-2.09 -4.65,-4.65l0 -99.64c0,-2.56 2.09,-4.65 4.65,-4.65z"/>
 </g>
</svg>
